<?xml version="1.0" encoding="utf-8"?>
<!-- Generator: Adobe Illustrator 22.0.1, SVG Export Plug-In . SVG Version: 6.00 Build 0)  -->
<svg version="1.1" id="Layer_2_1_" xmlns="http://www.w3.org/2000/svg" xmlns:xlink="http://www.w3.org/1999/xlink" x="0px" y="0px"
	 viewBox="0 0 195.8 33.6" style="enable-background:new 0 0 195.8 33.6;" xml:space="preserve">
<style type="text/css">
	.st0{fill:#FFFFFF;}
</style>
<g>
	<path class="st0" d="M35.4,16.5L35.4,16.5c0,5.5,4,10.1,9.8,10.1v7c-5.3,0-9.9-2.2-13-5.7l2.2,5.2h-7.9l-2.6-6.7H10.3l-2.6,6.7H0
		l2.9-6.8c7.5-3.4,16-6.2,25.1-8.4l0,0c0-0.3,0-0.7,0-1v-0.1C28,7.6,35.2,0,45.2,0v6.6C39.5,6.6,35.4,11,35.4,16.5z M26.9,15.3
		c-2.1,0.3-4.4,0.6-6.8,1l-2.9-7.6l-3.4,8.7c-2.6,0.5-5.2,1-7.8,1.6l7.9-18.7h6.6L26.9,15.3z"/>
	<path class="st0" d="M57.3,33L57.3,33V0.5h1.5V33H57.3L57.3,33z"/>
	<g>
		<path class="st0" d="M77.8,14l-3-4.2h-2.7V14H70V2h5.4c2.8,0,4.5,1.5,4.5,3.8c0,2-1.2,3.2-2.9,3.7l3.3,4.6h-2.5V14z M75.3,3.9
			h-3.1v4h3.1c1.5,0,2.5-0.8,2.5-2C77.8,4.6,76.8,3.9,75.3,3.9z"/>
		<path class="st0" d="M86.4,14.2c-2.8,0-4.8-2.1-4.8-4.7s2.1-4.8,4.9-4.8s4.8,2.1,4.8,4.7S89.2,14.2,86.4,14.2z M86.4,6.5
			c-1.7,0-2.7,1.3-2.7,2.9s1.2,2.9,2.8,2.9c1.7,0,2.8-1.3,2.8-2.9C89.2,7.9,88.1,6.5,86.4,6.5z"/>
		<path class="st0" d="M97.7,14.2c-2.8,0-4.8-2.1-4.8-4.7s2.1-4.8,4.9-4.8s4.8,2.1,4.8,4.7S100.5,14.2,97.7,14.2z M97.7,6.5
			C96,6.5,95,7.8,95,9.4s1.2,2.9,2.8,2.9c1.7,0,2.8-1.3,2.8-2.9C100.5,7.9,99.4,6.5,97.7,6.5z"/>
		<path class="st0" d="M115.4,4.7c2,0,3.2,1.3,3.2,3.5V14h-2.1V8.8c0-1.4-0.7-2.2-1.8-2.2c-1.1,0-1.9,0.8-1.9,2.3V14h-2.1V8.8
			c0-1.4-0.7-2.2-1.8-2.2c-1.2,0-1.9,0.9-1.9,2.3V14h-2.1V4.9h2.1v1.4c0.6-0.8,1.4-1.6,2.8-1.6c1.3,0,2.2,0.6,2.7,1.6
			C113,5.3,114,4.7,115.4,4.7z"/>
		<path class="st0" d="M135.8,5c0,1.5-0.8,2.2-1.7,2.7c1.4,0.5,2.4,1.3,2.4,2.9c0,2.2-1.8,3.3-4.5,3.3h-5.6v-12h5.4
			C134.3,1.9,135.8,3.1,135.8,5z M133.7,5.4c0-1-0.8-1.5-2.1-1.5h-3V7h2.9C132.8,7,133.7,6.5,133.7,5.4z M134.4,10.4
			c0-1-0.8-1.6-2.5-1.6h-3.4v3.3h3.5C133.5,12.1,134.4,11.5,134.4,10.4z"/>
		<path class="st0" d="M143,14.2c-2.8,0-4.8-2.1-4.8-4.7s2.1-4.8,4.9-4.8c2.8,0,4.8,2.1,4.8,4.7S145.8,14.2,143,14.2z M143,6.5
			c-1.7,0-2.7,1.3-2.7,2.9s1.2,2.9,2.8,2.9c1.7,0,2.8-1.3,2.8-2.9C145.8,7.9,144.6,6.5,143,6.5z"/>
		<path class="st0" d="M154.3,14.2c-2.8,0-4.8-2.1-4.8-4.7s2.1-4.8,4.9-4.8c2.8,0,4.8,2.1,4.8,4.7S157.1,14.2,154.3,14.2z
			 M154.3,6.5c-1.7,0-2.7,1.3-2.7,2.9s1.2,2.9,2.8,2.9c1.7,0,2.8-1.3,2.8-2.9C157.1,7.9,155.9,6.5,154.3,6.5z"/>
		<path class="st0" d="M169.8,14h-2.4l-2.7-3.9l-1.3,1.3V14h-2.1V1.4h2.1v7.5l3.8-4h2.5L166,8.6L169.8,14z"/>
		<path class="st0" d="M171.3,3.5v-2h2.2v2H171.3z M171.4,14V4.9h2.1V14H171.4z"/>
		<path class="st0" d="M178.3,14h-2.1V4.9h2.1v1.4c0.6-0.9,1.4-1.6,2.8-1.6c2,0,3.2,1.4,3.2,3.5V14h-2.1V8.8c0-1.4-0.7-2.2-1.9-2.2
			s-2,0.8-2,2.3V14z"/>
		<path class="st0" d="M190.9,16.8c-1.5,0-2.9-0.4-4.1-1.1l0.8-1.6c1,0.6,2,1,3.2,1c1.9,0,2.9-1,2.9-2.8v-0.7
			c-0.8,1-1.7,1.7-3.2,1.7c-2.1,0-4.1-1.6-4.1-4.3s2-4.3,4.1-4.3c1.5,0,2.5,0.7,3.2,1.5V4.9h2.1v7.2
			C195.8,15.3,194.1,16.8,190.9,16.8z M191.1,6.5c-1.4,0-2.6,1-2.6,2.5s1.2,2.5,2.6,2.5c1.4,0,2.7-1,2.7-2.5S192.6,6.5,191.1,6.5z"
			/>
		<path class="st0" d="M74.7,25c2.5,0.6,3.9,1.5,3.9,3.5c0,2.3-1.8,3.6-4.3,3.6c-1.8,0-3.6-0.6-5-1.9l1.3-1.5c1.2,1,2.3,1.6,3.8,1.6
			c1.3,0,2.1-0.6,2.1-1.5s-0.5-1.3-2.7-1.9c-2.6-0.6-4-1.4-4-3.6c0-2.1,1.7-3.5,4.1-3.5c1.8,0,3.1,0.5,4.4,1.5l-1.1,1.6
			c-1.1-0.8-2.2-1.2-3.3-1.2c-1.2,0-2,0.6-2,1.4C71.9,24,72.4,24.4,74.7,25z"/>
		<path class="st0" d="M85.1,30.5c1,0,1.7-0.4,2.5-1.1l1.2,1.1c-0.9,1-2,1.7-3.7,1.7c-2.6,0-4.7-1.9-4.7-4.7c0-2.6,1.8-4.8,4.4-4.8
			c2.9,0,4.4,2.3,4.4,4.9c0,0.2,0,0.4,0,0.6h-6.7C82.7,29.7,83.7,30.5,85.1,30.5z M87.1,26.8c-0.1-1.3-0.9-2.4-2.3-2.4
			c-1.3,0-2.2,1-2.4,2.4H87.1z"/>
		<path class="st0" d="M93.3,32h-2.1v-9.1h2.1v2c0.6-1.4,1.6-2.3,3.2-2.2v2.2h-0.1c-1.8,0-3.1,1.2-3.1,3.6V32z"/>
		<path class="st0" d="M104.6,22.9h2.2l-3.7,9.2h-1.9l-3.7-9.2h2.2l2.4,6.7L104.6,22.9z"/>
		<path class="st0" d="M108.6,21.5v-2h2.2v2H108.6z M108.7,32v-9.1h2.1V32H108.7z"/>
		<path class="st0" d="M117.7,32.2c-2.7,0-4.7-2.1-4.7-4.7s2-4.8,4.7-4.8c1.7,0,2.8,0.6,3.6,1.6l-1.3,1.4c-0.6-0.7-1.3-1.1-2.4-1.1
			c-1.5,0-2.6,1.3-2.6,2.9s1.1,2.9,2.7,2.9c1,0,1.7-0.5,2.4-1.1l1.3,1.2C120.5,31.5,119.5,32.2,117.7,32.2z"/>
		<path class="st0" d="M127.3,30.5c1,0,1.7-0.4,2.5-1.1l1.2,1.1c-0.9,1-2,1.7-3.7,1.7c-2.6,0-4.7-1.9-4.7-4.7c0-2.6,1.8-4.8,4.4-4.8
			c2.9,0,4.4,2.3,4.4,4.9c0,0.2,0,0.4,0,0.6h-6.7C124.9,29.7,125.9,30.5,127.3,30.5z M129.3,26.8c-0.1-1.3-0.9-2.4-2.3-2.4
			c-1.3,0-2.2,1-2.4,2.4H129.3z"/>
	</g>
</g>
</svg>
