<svg xmlns="http://www.w3.org/2000/svg"><symbol id="algonquin" viewBox="0 0 200 200"><path fill="#006341" d="M116.2 93.8L90.7 33.9a.6.6 0 0 0-.6-.4H64.2a.6.6 0 0 0-.7.4L55 53.8l-22.2 52.3-1.4 3.2h.5l4.4-1 17.4-3.6 8.8-1.7a.8.8 0 0 0 .7-.6L76.5 68l.3-.6 11.9 31 27.7-4.1z"/><path fill="#006341" d="M155.3 81a42.4 42.4 0 0 0-3.4 26.1 39.8 39.8 0 0 0 9.1 19.7 38 38 0 0 0 17.8 11.7 41.7 41.7 0 0 0 12.3 1.9V169l-5-.2c-2.7-.3-5.4-.5-8.1-1a67 67 0 0 1-14.7-4.3 68.4 68.4 0 0 1-13.9-7.7 67.4 67.4 0 0 1-10.6-9.6l-.4-.4h-.2l8.9 20.9h-31.6a.7.7 0 0 1-.8-.5l-10.1-26.4a.6.6 0 0 0-.7-.5H49.5a.7.7 0 0 0-.7.5l-10.2 26.4a.6.6 0 0 1-.7.5H7l.2-.6 11.3-26.5a1.1 1.1 0 0 1 .6-.6q13.5-6 27.3-11.2 16.5-6.3 33.4-11.5 14.9-4.6 30-8.5l10.7-2.7c.3-.1.4-.2.4-.6 0-3.1-.1-6.1.1-9.2a61.4 61.4 0 0 1 2.9-15.3 66.4 66.4 0 0 1 28.6-37.1 68.3 68.3 0 0 1 23.7-9.3 73.4 73.4 0 0 1 12.3-1.4h2.7v26.7h-.4a41.4 41.4 0 0 0-11.6 1.7A37.8 37.8 0 0 0 155.3 81z"/><path fill="#006341" d="M31.4 109.3l1.4-3.2L55 53.8 63.4 34a.6.6 0 0 1 .7-.5H90a.6.6 0 0 1 .6.4l25.5 59.9.2.6-27.6 4-11.9-31-.2.6-13.4 34.5a.8.8 0 0 1-.7.6l-8.8 1.7-17.4 3.6-4.4 1z"/></symbol><symbol id="date-time" viewBox="0 0 200 200"><path fill="#006341" d="M100.5 47.8a4.2 4.2 0 0 0-4.1-4.2 4.1 4.1 0 0 0-3.9 4.3v11.6a4 4 0 1 0 8 0V47.8zm-28.7 0a5.2 5.2 0 0 0-.6-2.2 3.7 3.7 0 0 0-4.2-1.9 3.9 3.9 0 0 0-3.2 4.1v11.7a4.2 4.2 0 0 0 1.5 3.4 3.7 3.7 0 0 0 4 .6 4 4 0 0 0 2.5-3.9q.1-5.9 0-11.8zm57.3 0a4.1 4.1 0 0 0-2.8-4c-2.7-.8-5.1 1.1-5.2 4.2s0 7.7 0 11.5a4.1 4.1 0 0 0 3.9 4.3c2.3 0 4-1.8 4-4.4v-5.7c0-1.9.2-3.9.1-5.9zm-24.7 81.1a3.8 3.8 0 0 0-4-3.4h-7.9a3.9 3.9 0 0 0-4.1 3.6 23.2 23.2 0 0 0 0 4.7 4 4 0 0 0 4.2 3.7h7.7c2.3-.1 3.9-1.3 4.2-3.5a21.1 21.1 0 0 0-.1-5.1zm-24.5.1a3.8 3.8 0 0 0-3.7-3.5c-1.4-.1-2.7 0-4.1 0h-4a3.9 3.9 0 0 0-4.2 3.7 21.8 21.8 0 0 0 0 4.7 3.9 3.9 0 0 0 4.2 3.7h7.7a3.9 3.9 0 0 0 4.1-3.5 21.1 21.1 0 0 0 0-5.1zm24.6-16.4a3.9 3.9 0 0 0-4.1-3.5h-7.6a4.1 4.1 0 0 0-4.4 4.4v3.3a4.1 4.1 0 0 0 4.2 4.3h7.8a3.9 3.9 0 0 0 4-3.5 21.7 21.7 0 0 0 .1-5zm-24.6-.1a3.9 3.9 0 0 0-4.1-3.5H68a3.8 3.8 0 0 0-4 3.5 21.1 21.1 0 0 0 0 5c.3 2.3 1.9 3.5 4.2 3.6h7.5c2.3-.1 4-1.3 4.2-3.6a20.6 20.6 0 0 0 0-5zM129 96.3a3.9 3.9 0 0 0-4.1-3.6h-7.8a3.8 3.8 0 0 0-4.1 3.5 20.2 20.2 0 0 0 0 5.1c.3 2.2 1.9 3.5 4.2 3.5h7.5c2.4-.1 3.9-1.3 4.2-3.6a20.6 20.6 0 0 0 .1-4.9zm-24.6 0a3.8 3.8 0 0 0-3.7-3.6c-1.4-.1-2.8 0-4.2 0h-3.8c-2.4.1-4 1.3-4.2 3.6a20.6 20.6 0 0 0 0 5 3.9 3.9 0 0 0 4 3.5h7.8a3.9 3.9 0 0 0 4.1-3.6 21.2 21.2 0 0 0 .1-4.9zm-24.6-.2a3.9 3.9 0 0 0-4.1-3.5H68a4.1 4.1 0 0 0-4.2 4 37.2 37.2 0 0 0 0 4.1 4 4 0 0 0 4.2 4h7.8a3.9 3.9 0 0 0 4.1-3.5 21.1 21.1 0 0 0 0-5.1zm57.9 12.9c-16 .2-28.7 12.5-28.7 28.6a28.5 28.5 0 0 0 57 0c-.1-16.1-12.7-28.1-28.3-28.6zm-.2 49.1a20.6 20.6 0 1 1 20.5-20.5 20.5 20.5 0 0 1-20.6 20.6zm16-21.9a4.2 4.2 0 0 0-4.1-2.7h-7.9V132c0-2.2.1-4.3 0-6.5a4 4 0 1 0-7.9 0c0 4-.1 7.9 0 11.9a4 4 0 0 0 4 4.1h12.2a3.9 3.9 0 0 0 3.6-5.2zM149.6 68a14.1 14.1 0 0 0-.4-3 16.2 16.2 0 0 0-14.9-13.1c-.8-.1-.9.3-.9 1v7.4a8.3 8.3 0 0 1-16.6 0V53c0-.8-.3-1.1-1.1-1.1h-9.8c-.9 0-1.2.4-1.1 1.2v7.2a8.3 8.3 0 0 1-16.6 0V53c0-.8-.2-1.1-1-1h-10c-.8 0-1.1.3-1.1 1.1v7.2a8.3 8.3 0 0 1-16.6 0V52l-3 .3a16.3 16.3 0 0 0-13.1 16.2v68.7a16.8 16.8 0 0 0 .4 3.5 16.3 16.3 0 0 0 16.3 13.1h48.5c-.9-2.2-1.8-4.4-2.5-6.6a1.6 1.6 0 0 0-1.9-1.3H59.7a8.1 8.1 0 0 1-8.3-8.2V85.8c0-.5 0-.9.1-1.3h90.2v19c0 1 .3 1.5 1.3 1.7s3.9 1 5.8 1.5h.9v-.7q-.1-19-.1-38z"/><path fill="#006341" d="M59.5 51.8v8.3a8.3 8.3 0 0 0 16.6 0v-7.2c0-.8.3-1.1 1.1-1.1h10c.8 0 1 .3 1 1.1v7.3a8.3 8.3 0 0 0 16.6 0V53c0-.9.2-1.2 1.1-1.2h9.8c.8 0 1.1.3 1.1 1.1v7.3a8.3 8.3 0 0 0 16.6 0v-7.4c0-.7.1-1 .9-.9A16.2 16.2 0 0 1 149.2 65a14.8 14.8 0 0 1 .4 3v38.8h-.9c-1.9-.5-3.8-1.1-5.8-1.5s-1.3-.6-1.3-1.7c.1-5.8 0-11.7 0-17.5v-1.6H51.4c0 .4-.1.9-.1 1.4v51.9a8.1 8.1 0 0 0 8.3 8.2h44.5a1.6 1.6 0 0 1 1.9 1.4c.7 2.2 1.7 4.3 2.5 6.6H60.1a16.3 16.3 0 0 1-16.3-13.1 16.9 16.9 0 0 1-.4-3.5V68.7a16.3 16.3 0 0 1 13.2-16.6z"/><path fill="#006341" d="M137.7 109c-16 .2-28.7 12.5-28.7 28.6a28.5 28.5 0 0 0 57 0c-.1-16.1-12.7-28.1-28.3-28.6zm-.2 49.1a20.6 20.6 0 1 1 20.5-20.5 20.5 20.5 0 0 1-20.6 20.6zM72 92.7h3.8a3.9 3.9 0 0 1 4.1 3.5 20.8 20.8 0 0 1 0 5.1 3.9 3.9 0 0 1-4.1 3.5H68a4 4 0 0 1-4.2-4 36 36 0 0 1 0-4.1 4.1 4.1 0 0 1 4.2-4h4zm24.6 0c1.4 0 2.8-.1 4.2 0a3.8 3.8 0 0 1 3.7 3.6 21.5 21.5 0 0 1 0 4.8 3.9 3.9 0 0 1-4.1 3.6h-7.8a3.9 3.9 0 0 1-4-3.5 20.6 20.6 0 0 1 0-5c.3-2.3 1.9-3.5 4.2-3.6h3.8zm24.4 12.1h-3.7c-2.3-.1-3.9-1.3-4.2-3.5a20.4 20.4 0 0 1 0-5.1 3.8 3.8 0 0 1 4.1-3.5h7.8a3.9 3.9 0 0 1 4.1 3.6 20.4 20.4 0 0 1 0 4.8c-.3 2.3-1.9 3.5-4.2 3.6H121zm-49.1 16.3h-3.8c-2.4-.1-4-1.3-4.2-3.6a21.1 21.1 0 0 1 0-5A3.8 3.8 0 0 1 68 109h7.8a3.9 3.9 0 0 1 4.1 3.5 20.7 20.7 0 0 1 0 5c-.3 2.3-1.9 3.6-4.2 3.6h-3.8zm24.6-12h3.8a3.9 3.9 0 0 1 4.1 3.6 21.5 21.5 0 0 1 0 5 3.9 3.9 0 0 1-4 3.5h-7.8a4.1 4.1 0 0 1-4.2-4.3v-3.3a4.2 4.2 0 0 1 4.4-4.4h3.7zM72 125.4c1.4 0 2.7-.1 4.1 0a3.8 3.8 0 0 1 3.8 3.5 20.7 20.7 0 0 1 0 5 3.9 3.9 0 0 1-4.1 3.5h-7.7a3.9 3.9 0 0 1-4.2-3.7 21.4 21.4 0 0 1 0-4.7 3.9 3.9 0 0 1 4.2-3.7h4zm24.5 12.1h-3.9a4 4 0 0 1-4.2-3.7 22.4 22.4 0 0 1 0-4.7 3.9 3.9 0 0 1 4.1-3.6h7.9a3.8 3.8 0 0 1 4 3.4 20.7 20.7 0 0 1 0 5.1c-.3 2.2-1.8 3.5-4.1 3.5h-3.8zm32.6-83.8v5.8c0 2-1.8 4.4-4 4.4a4.1 4.1 0 0 1-3.9-4.3V48.1c0-3.8 2.4-5 5.1-4.2a4.1 4.1 0 0 1 2.8 4c.1 1.9 0 3.8 0 5.8zm-65.3 0v-5.9a3.9 3.9 0 0 1 3.2-4.1 3.7 3.7 0 0 1 4.2 1.9 5.2 5.2 0 0 1 .6 2.2q.1 5.9 0 11.8a4 4 0 0 1-2.4 3.9 3.7 3.7 0 0 1-4.1-.6 4.2 4.2 0 0 1-1.5-3.4v-5.8zm36.7 0v5.7a4 4 0 1 1-8 0q-.1-5.8 0-11.6a4.1 4.1 0 0 1 3.9-4.3 4.2 4.2 0 0 1 4.1 4.2v5.9z"/><path fill="#006341" d="M149.6 141.6h-12.2a4 4 0 0 1-4-4.1c-.1-4 0-7.9 0-11.9a4 4 0 1 1 7.9 0c.1 2.2 0 4.3 0 6.5v1.6h7.9a4.2 4.2 0 0 1 4.1 2.7 3.9 3.9 0 0 1-3.7 5.2z"/></symbol><symbol id="feature" viewBox="0 0 200 200"><path fill="#006341" d="M101.7 49.1l10.7 32.8a3.7 3.7 0 0 0 3.5 2.6h34.5a3.7 3.7 0 0 1 2.2 6.7l-27.9 20.3a3.7 3.7 0 0 0-1.3 4.2l10.6 32.8a3.7 3.7 0 0 1-5.7 4.2l-27.9-20.3a3.7 3.7 0 0 0-4.4 0l-27.9 20.2a3.7 3.7 0 0 1-5.7-4.2L73 115.6a3.7 3.7 0 0 0-1.3-4.2L43.8 91.2a3.7 3.7 0 0 1 2.2-6.7h34.5a3.7 3.7 0 0 0 3.5-2.6l10.7-32.8a3.7 3.7 0 0 1 7 0z"/></symbol><symbol id="features" viewBox="0 0 200 200"><path fill="#006341" d="M50.9 124.2l2.7 8.2a.9.9 0 0 0 .9.6h8.6a.9.9 0 0 1 .5 1.7l-7 5.1a.9.9 0 0 0-.3 1L59 149a.9.9 0 0 1-1.4 1l-7-5.1a.9.9 0 0 0-1.1 0l-7 5.1a.9.9 0 0 1-1.4-1l2.7-8.2a.9.9 0 0 0-.3-1l-7-5.1a.9.9 0 0 1 .5-1.7h8.6a.9.9 0 0 0 .9-.6l2.7-8.2a.9.9 0 0 1 1.7 0zm0-34.1l2.7 8.2a.9.9 0 0 0 .9.6h8.6a.9.9 0 0 1 .5 1.7l-7 5.1a.9.9 0 0 0-.3 1L59 115a.9.9 0 0 1-1.4 1l-7-5.1a.9.9 0 0 0-1.1 0l-7 5.1a.9.9 0 0 1-1.4-1l2.7-8.2a.9.9 0 0 0-.3-1l-7-5.1A.9.9 0 0 1 37 99h8.6a.9.9 0 0 0 .9-.6l2.7-8.2a.9.9 0 0 1 1.7-.1zm0-35l2.7 8.2a.9.9 0 0 0 .9.6h8.6a.9.9 0 0 1 .5 1.7l-7 5.1a.9.9 0 0 0-.3 1L59 80a.9.9 0 0 1-1.4 1l-7-5.1a.9.9 0 0 0-1.1 0l-7 5.1a.9.9 0 0 1-1.5-1l2.7-8.2a.9.9 0 0 0-.3-1l-7-5.1a.9.9 0 0 1 .5-1.7h8.6a.9.9 0 0 0 .9-.6l2.7-8.2a.9.9 0 0 1 1.8-.1zM120 75.4H84.1a7.5 7.5 0 0 1-7.1-4.5 7.6 7.6 0 0 1 .9-8.4 8 8 0 0 1 6.7-3.1h71.3a8 8 0 0 1 7.9 6.1 7.7 7.7 0 0 1-3.7 8.7 10.6 10.6 0 0 1-4.7 1.1zm0 71.9H84.3a8 8 0 0 1-3.6-15.2 9.4 9.4 0 0 1 3.7-.8h71.3a8 8 0 1 1 .1 16zm0-51.9h36.1a7.9 7.9 0 0 1 2.5 15.5 10.5 10.5 0 0 1-3.2.4H84.8c-3.9 0-7.1-2-8.1-5s-.3-7.2 2.7-9.2a8.7 8.7 0 0 1 4.5-1.5H120z"/></symbol><symbol id="search" viewBox="0 0 200 200"><path fill="#006341" stroke="#006341" stroke-miterlimit="10" stroke-width="5" d="M150.6 137.6l-1.6-1.5-4.2-3.8-5.4-4.8-4.2-3.8-6.4-5.7-2.6-2.3c-.2-.2-.3-.2-.1-.5a40.2 40.2 0 0 0 5.5-10.6 36.4 36.4 0 0 0 1.8-8.1c.1-1.2.2-2.5.3-3.7s0-2.6-.1-3.9-.3-2.6-.5-3.8a38.4 38.4 0 0 0-3.4-10.2A41.3 41.3 0 0 0 118 60.6a40 40 0 0 0-14-7.1 35 35 0 0 0-6.4-1.1l-2.9-.2h-3.8l-3.8.5a38 38 0 0 0-8.9 2.7 41 41 0 0 0-14.6 11.2 40.2 40.2 0 0 0-6.1 9.6A38.7 38.7 0 0 0 54.3 88c-.1 1.3-.2 2.7-.3 4.1s.2 2.7.3 4.2a30.9 30.9 0 0 0 .7 4.4 39.2 39.2 0 0 0 3.7 9.7 41.3 41.3 0 0 0 12.8 14.4 40.3 40.3 0 0 0 9.1 4.7 37.4 37.4 0 0 0 8.7 2.1l3.3.3a37.7 37.7 0 0 0 5.6-.2l4.6-.8a39.7 39.7 0 0 0 12.7-5.5l2-1.4c.1-.1.2-.1.3 0l1.5 1.4 7.3 6.6 6.7 6.1 9 8.1a6 6 0 0 0 5.2 1.7 5.9 5.9 0 0 0 4.9-5.3 5.8 5.8 0 0 0-1.8-5zm-30.7-23.1a32.8 32.8 0 0 1-9.2 7.4 33.4 33.4 0 0 1-10 3.5l-3.4.4h-4l-3.3-.2a31.4 31.4 0 0 1-6-1.2 33.1 33.1 0 0 1-13.4-7.7 32.9 32.9 0 0 1-6.3-8.1 32.4 32.4 0 0 1-3.2-8.3 40.1 40.1 0 0 1-.7-4c-.2-1.4-.2-2.9-.3-4.3H60a35 35 0 0 1 1.8-11 33.1 33.1 0 0 1 19.6-20.6 32.1 32.1 0 0 1 7.2-1.9l3.2-.3h2.9a37.3 37.3 0 0 1 5.1.4 34 34 0 0 1 10.5 3.4 33.2 33.2 0 0 1 5.9 4 32.8 32.8 0 0 1 6.2 7 33.4 33.4 0 0 1 4.6 10.5 30.7 30.7 0 0 1 .8 4.6c.1.9.2 1.8.2 2.8V94a34.7 34.7 0 0 1-3 12.5 33.2 33.2 0 0 1-5.2 8z"/></symbol><symbol id="searching" viewBox="0 0 200 200"><rect width="66" height="96" x="59" y="52" fill="none" stroke="#006341" stroke-miterlimit="10" stroke-width="7" rx="6.6" ry="6.6"/><circle cx="121.5" cy="93.5" r="20.5" fill="#fff"/><path fill="#006341" stroke="#006341" stroke-miterlimit="10" stroke-width="3.04" d="M145.6 129.8l-.7-1.2-1.7-2.9-2.2-3.8-1.7-3-2.6-4.5-1.1-1.8c-.1-.2-.1-.2 0-.3a24.5 24.5 0 0 0 5.2-5.1 22.2 22.2 0 0 0 2.6-4.4c.3-.7.6-1.4.8-2.1s.5-1.5.6-2.3.3-1.5.4-2.3a23.4 23.4 0 0 0-.1-6.6 25.1 25.1 0 0 0-4.2-10.4 24.3 24.3 0 0 0-7-6.7 21.3 21.3 0 0 0-3.5-1.8l-1.7-.6-2.2-.6-2.3-.4a23.1 23.1 0 0 0-5.6 0 25 25 0 0 0-10.5 3.7 24.4 24.4 0 0 0-5.3 4.5 23.6 23.6 0 0 0-4 6.3l-.9 2.4-.6 2.5a18.8 18.8 0 0 0-.4 2.7 23.8 23.8 0 0 0 .4 6.3 25.1 25.1 0 0 0 4.8 10.7 24.5 24.5 0 0 0 4.4 4.4 22.8 22.8 0 0 0 4.7 2.8l1.9.8 3.3.9 2.8.4a24.1 24.1 0 0 0 8.4-.9l1.4-.5h.2l.6 1.1 3 5.2 2.8 4.8 3.7 6.3a3.7 3.7 0 0 0 2.7 1.9 3.6 3.6 0 0 0 3.8-2.2 3.5 3.5 0 0 0-.2-3.3zm-13.6-19a20 20 0 0 1-6.7 2.6 20.3 20.3 0 0 1-6.5.2l-2.1-.4-2.3-.7-1.8-.7a19.1 19.1 0 0 1-3.3-1.8 20.1 20.1 0 0 1-6.4-6.9 20 20 0 0 1-2.2-5.9 19.7 19.7 0 0 1-.3-5.4 24.4 24.4 0 0 1 .3-2.5c.2-.9.4-1.7.6-2.6a21.3 21.3 0 0 1 3-6.1 20.1 20.1 0 0 1 15.2-8.4 19.5 19.5 0 0 1 4.5.2l1.9.4 1.7.5 2.9 1.2a20.7 20.7 0 0 1 5.5 4 20.2 20.2 0 0 1 2.7 3.4 19.9 19.9 0 0 1 2.3 5.2 20.4 20.4 0 0 1 .7 6.9 18.7 18.7 0 0 1-.4 2.8l-.4 1.6-.6 1.8a21.1 21.1 0 0 1-4 6.7 20.2 20.2 0 0 1-4.3 3.8z"/><rect width="46.1" height="2.4" x="68.8" y="127.1" fill="#006341" stroke="#006341" stroke-miterlimit="10" rx="1.2" ry="1.2"/><rect width="38.2" height="2.53" x="68.8" y="62.5" fill="#006341" stroke="#006341" stroke-miterlimit="10" rx="1.2" ry="1.2"/><rect width="35.4" height="2.45" x="68.7" y="117.8" fill="#006341" stroke="#006341" stroke-miterlimit="10" rx="1.2" ry="1.2"/><rect width="24" height="2.53" x="68.8" y="108.6" fill="#006341" stroke="#006341" stroke-miterlimit="10" rx="1.2" ry="1.2"/><rect width="24.9" height="2.4" x="68.7" y="71.8" fill="#006341" stroke="#006341" stroke-miterlimit="10" rx="1.2" ry="1.2"/><path fill="#006341" stroke="#006341" stroke-miterlimit="10" d="M88.5 82.2a1.2 1.2 0 0 1-1.2 1.2H69.9a1.2 1.2 0 0 1-1.2-1.1 1.2 1.2 0 0 1 1.2-1.3h17.4a1.2 1.2 0 0 1 1.2 1.2zm-.4 18.4v.2a1.2 1.2 0 0 1-1.2 1.2H70.6c-1.8-.1-2.1-.1-1.9-1.5a1.2 1.2 0 0 1 1.2-1h17a1.2 1.2 0 0 1 1.2 1.1z"/><rect width="18.1" height="2.5" x="68.8" y="90.2" fill="#006341" stroke="#006341" stroke-miterlimit="10" rx="1.2" ry="1.2"/></symbol></svg>